name rise34.3697peak60.0498fall86.3158.mot
datacolumns 19
datarows 66
range 18.751599 18.859926
endheader
time	ground_force1_vx	ground_force1_vy	ground_force1_vz	ground_force1_px	ground_force1_py	ground_force1_pz	ground_force2_vx	ground_force2_vy	ground_force2_vz	ground_force2_px	ground_force2_py	ground_force2_pz	ground_torque1_x	ground_torque1_y	ground_torque1_z	ground_torque2_x	ground_torque2_y	ground_torque2_z	
18.751599	4.351364	32.831929	-0.682934	0.286381	0.000000	0.086387	66.244223	725.538048	-54.104417	0.421829	0.000000	-0.085562	0.000000	-1.441786	0.000000	0.000000	-31.082860	0.000000	
18.753262	3.997300	26.812763	-0.551936	0.295707	0.000000	0.085596	65.592394	728.851194	-54.181574	0.420227	0.000000	-0.085566	0.000000	-1.277279	0.000000	0.000000	-31.105733	0.000000	
18.754931	3.534888	21.128095	-0.428769	0.000000	0.000000	0.000000	64.933521	732.111838	-54.260936	0.418623	0.000000	-0.085571	0.000000	-0.661171	0.000000	0.000000	-31.130754	0.000000	
18.756595	2.998785	15.895894	-0.316248	0.000000	0.000000	0.000000	64.268573	735.317838	-54.343033	0.417019	0.000000	-0.085576	0.000000	-0.543919	0.000000	0.000000	-31.158322	0.000000	
18.758266	2.424731	11.218455	-0.216666	0.000000	0.000000	0.000000	63.598475	738.466947	-54.428332	0.415418	0.000000	-0.085583	0.000000	-0.425998	0.000000	0.000000	-31.188782	0.000000	
18.759933	1.846947	7.173759	-0.131645	0.000000	0.000000	0.000000	62.924109	741.556835	-54.517228	0.413819	0.000000	-0.085590	0.000000	-0.312815	0.000000	0.000000	-31.222421	0.000000	
18.761592	1.295840	3.809528	-0.062050	0.000000	0.000000	0.000000	62.246315	744.585098	-54.610047	0.412226	0.000000	-0.085598	0.000000	-0.208983	0.000000	0.000000	-31.259472	0.000000	
18.763259	0.000000	0.000000	0.000000	0.000000	0.000000	0.000000	61.565887	747.549275	-54.707047	0.410639	0.000000	-0.085607	0.000000	0.000000	0.000000	0.000000	-31.300115	0.000000	
18.764932	0.000000	0.000000	0.000000	0.000000	0.000000	0.000000	60.883579	750.446868	-54.808416	0.409059	0.000000	-0.085617	0.000000	0.000000	0.000000	0.000000	-31.344474	0.000000	
18.766596	0.000000	0.000000	0.000000	0.000000	0.000000	0.000000	60.200099	753.275351	-54.914276	0.407488	0.000000	-0.085627	0.000000	0.000000	0.000000	0.000000	-31.392623	0.000000	
18.768267	0.000000	0.000000	0.000000	0.000000	0.000000	0.000000	59.516110	756.032192	-55.024680	0.405926	0.000000	-0.085639	0.000000	0.000000	0.000000	0.000000	-31.444580	0.000000	
18.769931	0.000000	0.000000	0.000000	0.000000	0.000000	0.000000	58.832235	758.714865	-55.139614	0.404374	0.000000	-0.085651	0.000000	0.000000	0.000000	0.000000	-31.500319	0.000000	
18.771591	0.000000	0.000000	0.000000	0.000000	0.000000	0.000000	58.149052	761.320865	-55.259003	0.402834	0.000000	-0.085663	0.000000	0.000000	0.000000	0.000000	-31.559761	0.000000	
18.773261	0.000000	0.000000	0.000000	0.000000	0.000000	0.000000	57.467096	763.847725	-55.382706	0.401305	0.000000	-0.085677	0.000000	0.000000	0.000000	0.000000	-31.622783	0.000000	
18.774926	0.000000	0.000000	0.000000	0.000000	0.000000	0.000000	56.786861	766.293029	-55.510524	0.399789	0.000000	-0.085690	0.000000	0.000000	0.000000	0.000000	-31.689218	0.000000	
18.776593	0.000000	0.000000	0.000000	0.000000	0.000000	0.000000	56.108799	768.654429	-55.642199	0.398287	0.000000	-0.085705	0.000000	0.000000	0.000000	0.000000	-31.758856	0.000000	
18.778258	0.000000	0.000000	0.000000	0.000000	0.000000	0.000000	55.433319	770.929653	-55.777416	0.396797	0.000000	-0.085719	0.000000	0.000000	0.000000	0.000000	-31.831449	0.000000	
18.779928	0.000000	0.000000	0.000000	0.000000	0.000000	0.000000	54.760791	773.116523	-55.915811	0.395322	0.000000	-0.085735	0.000000	0.000000	0.000000	0.000000	-31.906711	0.000000	
18.781594	0.000000	0.000000	0.000000	0.000000	0.000000	0.000000	54.091547	775.212965	-56.056968	0.393861	0.000000	-0.085750	0.000000	0.000000	0.000000	0.000000	-31.984322	0.000000	
18.783260	0.000000	0.000000	0.000000	0.000000	0.000000	0.000000	53.425876	777.217020	-56.200425	0.392414	0.000000	-0.085766	0.000000	0.000000	0.000000	0.000000	-32.063930	0.000000	
18.784932	0.000000	0.000000	0.000000	0.000000	0.000000	0.000000	52.764034	779.126858	-56.345678	0.390981	0.000000	-0.085782	0.000000	0.000000	0.000000	0.000000	-32.145155	0.000000	
18.786598	0.000000	0.000000	0.000000	0.000000	0.000000	0.000000	52.106236	780.940784	-56.492181	0.389564	0.000000	-0.085799	0.000000	0.000000	0.000000	0.000000	-32.227592	0.000000	
18.788259	0.000000	0.000000	0.000000	0.000000	0.000000	0.000000	51.452663	782.657250	-56.639358	0.388160	0.000000	-0.085815	0.000000	0.000000	0.000000	0.000000	-32.310812	0.000000	
18.789931	0.000000	0.000000	0.000000	0.000000	0.000000	0.000000	50.803460	784.274860	-56.786596	0.386771	0.000000	-0.085832	0.000000	0.000000	0.000000	0.000000	-32.394366	0.000000	
18.791594	0.000000	0.000000	0.000000	0.000000	0.000000	0.000000	50.158739	785.792384	-56.933256	0.385396	0.000000	-0.085848	0.000000	0.000000	0.000000	0.000000	-32.477788	0.000000	
18.793262	0.000000	0.000000	0.000000	0.000000	0.000000	0.000000	49.518580	787.208756	-57.078678	0.384035	0.000000	-0.085865	0.000000	0.000000	0.000000	0.000000	-32.560601	0.000000	
18.794931	0.000000	0.000000	0.000000	0.000000	0.000000	0.000000	48.883031	788.523086	-57.222180	0.382688	0.000000	-0.085881	0.000000	0.000000	0.000000	0.000000	-32.642313	0.000000	
18.796595	0.000000	0.000000	0.000000	0.000000	0.000000	0.000000	48.252110	789.734663	-57.363064	0.381354	0.000000	-0.085897	0.000000	0.000000	0.000000	0.000000	-32.722429	0.000000	
18.798265	0.000000	0.000000	0.000000	0.000000	0.000000	0.000000	47.625806	790.842957	-57.500625	0.380032	0.000000	-0.085913	0.000000	0.000000	0.000000	0.000000	-32.800447	0.000000	
18.799930	0.000000	0.000000	0.000000	0.000000	0.000000	0.000000	47.004083	791.847626	-57.634146	0.378723	0.000000	-0.085929	0.000000	0.000000	0.000000	0.000000	-32.875863	0.000000	
18.801600	0.000000	0.000000	0.000000	0.000000	0.000000	0.000000	46.386875	792.748512	-57.762913	0.377426	0.000000	-0.085944	0.000000	0.000000	0.000000	0.000000	-32.948176	0.000000	
18.803266	0.000000	0.000000	0.000000	0.000000	0.000000	0.000000	45.774096	793.545648	-57.886209	0.376140	0.000000	-0.085959	0.000000	0.000000	0.000000	0.000000	-33.016890	0.000000	
18.804932	0.000000	0.000000	0.000000	0.000000	0.000000	0.000000	45.165634	794.239254	-58.003326	0.374865	0.000000	-0.085974	0.000000	0.000000	0.000000	0.000000	-33.081515	0.000000	
18.806595	0.000000	0.000000	0.000000	0.000000	0.000000	0.000000	44.561358	794.829740	-58.113565	0.373599	0.000000	-0.085988	0.000000	0.000000	0.000000	0.000000	-33.141572	0.000000	
18.808266	0.000000	0.000000	0.000000	0.000000	0.000000	0.000000	43.961116	795.317700	-58.216239	0.372344	0.000000	-0.086001	0.000000	0.000000	0.000000	0.000000	-33.196596	0.000000	
18.809924	0.000000	0.000000	0.000000	0.000000	0.000000	0.000000	43.364739	795.703916	-58.310682	0.371097	0.000000	-0.086014	0.000000	0.000000	0.000000	0.000000	-33.246137	0.000000	
18.811594	0.000000	0.000000	0.000000	0.000000	0.000000	0.000000	42.772039	795.989348	-58.396248	0.369857	0.000000	-0.086026	0.000000	0.000000	0.000000	0.000000	-33.289762	0.000000	
18.813262	0.000000	0.000000	0.000000	0.000000	0.000000	0.000000	42.182818	796.175136	-58.472314	0.368626	0.000000	-0.086037	0.000000	0.000000	0.000000	0.000000	-33.327061	0.000000	
18.814931	0.000000	0.000000	0.000000	0.000000	0.000000	0.000000	41.596859	796.262592	-58.538290	0.367401	0.000000	-0.086048	0.000000	0.000000	0.000000	0.000000	-33.357646	0.000000	
18.816594	0.000000	0.000000	0.000000	0.000000	0.000000	0.000000	41.013938	796.253198	-58.593612	0.366182	0.000000	-0.086058	0.000000	0.000000	0.000000	0.000000	-33.381154	0.000000	
18.818266	0.000000	0.000000	0.000000	0.000000	0.000000	0.000000	40.433819	796.148597	-58.637757	0.364968	0.000000	-0.086066	0.000000	0.000000	0.000000	0.000000	-33.397250	0.000000	
18.819937	0.000000	0.000000	0.000000	0.000000	0.000000	0.000000	39.856260	795.950590	-58.670234	0.363759	0.000000	-0.086074	0.000000	0.000000	0.000000	0.000000	-33.405625	0.000000	
18.821600	0.000000	0.000000	0.000000	0.000000	0.000000	0.000000	39.281010	795.661127	-58.690595	0.362554	0.000000	-0.086081	0.000000	0.000000	0.000000	0.000000	-33.406005	0.000000	
18.823265	0.000000	0.000000	0.000000	0.000000	0.000000	0.000000	38.707816	795.282303	-58.698433	0.361353	0.000000	-0.086086	0.000000	0.000000	0.000000	0.000000	-33.398144	0.000000	
18.824938	0.000000	0.000000	0.000000	0.000000	0.000000	0.000000	38.136419	794.816346	-58.693388	0.360154	0.000000	-0.086091	0.000000	0.000000	0.000000	0.000000	-33.381831	0.000000	
18.826593	0.000000	0.000000	0.000000	0.000000	0.000000	0.000000	37.566562	794.265612	-58.675143	0.358957	0.000000	-0.086094	0.000000	0.000000	0.000000	0.000000	-33.356889	0.000000	
18.828266	0.000000	0.000000	0.000000	0.000000	0.000000	0.000000	36.997985	793.632578	-58.643432	0.357761	0.000000	-0.086097	0.000000	0.000000	0.000000	0.000000	-33.323176	0.000000	
18.829931	0.000000	0.000000	0.000000	0.000000	0.000000	0.000000	36.430433	792.919830	-58.598037	0.356567	0.000000	-0.086097	0.000000	0.000000	0.000000	0.000000	-33.280585	0.000000	
18.831596	0.000000	0.000000	0.000000	0.000000	0.000000	0.000000	35.863652	792.130057	-58.538789	0.355373	0.000000	-0.086097	0.000000	0.000000	0.000000	0.000000	-33.229046	0.000000	
18.833259	0.000000	0.000000	0.000000	0.000000	0.000000	0.000000	35.297394	791.266041	-58.465573	0.354179	0.000000	-0.086095	0.000000	0.000000	0.000000	0.000000	-33.168524	0.000000	
18.834924	0.000000	0.000000	0.000000	0.000000	0.000000	0.000000	34.731417	790.330649	-58.378325	0.352984	0.000000	-0.086092	0.000000	0.000000	0.000000	0.000000	-33.099023	0.000000	
18.836601	0.000000	0.000000	0.000000	0.000000	0.000000	0.000000	34.165488	789.326821	-58.277030	0.351788	0.000000	-0.086088	0.000000	0.000000	0.000000	0.000000	-33.020579	0.000000	
18.838264	0.000000	0.000000	0.000000	0.000000	0.000000	0.000000	33.599380	788.257567	-58.161729	0.350592	0.000000	-0.086082	0.000000	0.000000	0.000000	0.000000	-32.933268	0.000000	
18.839929	0.000000	0.000000	0.000000	0.000000	0.000000	0.000000	33.032879	787.125950	-58.032513	0.349393	0.000000	-0.086075	0.000000	0.000000	0.000000	0.000000	-32.837197	0.000000	
18.841594	0.000000	0.000000	0.000000	0.000000	0.000000	0.000000	32.465780	785.935084	-57.889523	0.348193	0.000000	-0.086066	0.000000	0.000000	0.000000	0.000000	-32.732511	0.000000	
18.843258	0.000000	0.000000	0.000000	0.000000	0.000000	0.000000	31.897893	784.688121	-57.732951	0.346991	0.000000	-0.086056	0.000000	0.000000	0.000000	0.000000	-32.619387	0.000000	
18.844931	0.000000	0.000000	0.000000	0.000000	0.000000	0.000000	31.329038	783.388242	-57.563038	0.345786	0.000000	-0.086044	0.000000	0.000000	0.000000	0.000000	-32.498034	0.000000	
18.846592	0.000000	0.000000	0.000000	0.000000	0.000000	0.000000	30.759050	782.038651	-57.380075	0.344580	0.000000	-0.086031	0.000000	0.000000	0.000000	0.000000	-32.368693	0.000000	
18.848261	0.000000	0.000000	0.000000	0.000000	0.000000	0.000000	30.187780	780.642564	-57.184394	0.343371	0.000000	-0.086016	0.000000	0.000000	0.000000	0.000000	-32.231634	0.000000	
18.849931	0.000000	0.000000	0.000000	0.000000	0.000000	0.000000	29.615091	779.203203	-56.976377	0.342160	0.000000	-0.085999	0.000000	0.000000	0.000000	0.000000	-32.087157	0.000000	
18.851591	0.000000	0.000000	0.000000	0.000000	0.000000	0.000000	29.040865	777.723785	-56.756445	0.340946	0.000000	-0.085982	0.000000	0.000000	0.000000	0.000000	-31.935585	0.000000	
18.853268	0.000000	0.000000	0.000000	0.000000	0.000000	0.000000	28.464995	776.207517	-56.525060	0.339731	0.000000	-0.085962	0.000000	0.000000	0.000000	0.000000	-31.777269	0.000000	
18.854931	0.000000	0.000000	0.000000	0.000000	0.000000	0.000000	27.887394	774.657587	-56.282721	0.338513	0.000000	-0.085941	0.000000	0.000000	0.000000	0.000000	-31.612582	0.000000	
18.856596	0.000000	0.000000	0.000000	0.000000	0.000000	0.000000	27.307988	773.077158	-56.029964	0.337294	0.000000	-0.085918	0.000000	0.000000	0.000000	0.000000	-31.441917	0.000000	
18.858262	0.000000	0.000000	0.000000	0.000000	0.000000	0.000000	26.726721	771.469360	-55.767355	0.336074	0.000000	-0.085894	0.000000	0.000000	0.000000	0.000000	-31.265688	0.000000	
18.859926	0.000000	0.000000	0.000000	0.000000	0.000000	0.000000	26.143550	769.837284	-55.495490	0.334852	0.000000	-0.085868	0.000000	0.000000	0.000000	0.000000	-31.084322	0.000000	
